<?xml version="1.0" encoding="UTF-8" standalone="no"?>
<!-- Created with Inkscape (http://www.inkscape.org/) -->

<svg
   xmlns:dc="http://purl.org/dc/elements/1.1/"
   xmlns:cc="http://creativecommons.org/ns#"
   xmlns:rdf="http://www.w3.org/1999/02/22-rdf-syntax-ns#"
   xmlns:svg="http://www.w3.org/2000/svg"
   xmlns="http://www.w3.org/2000/svg"
   xmlns:sodipodi="http://sodipodi.sourceforge.net/DTD/sodipodi-0.dtd"
   xmlns:inkscape="http://www.inkscape.org/namespaces/inkscape"
   width="64"
   height="64"
   id="svg2"
   version="1.1"
   inkscape:version="0.48.0 r9654"
   sodipodi:docname="48.svg">
  <defs
     id="defs4">
    <filter
       inkscape:collect="always"
       id="filter4052"
       color-interpolation-filters="sRGB">
      <feGaussianBlur
         inkscape:collect="always"
         stdDeviation="0.69000002"
         id="feGaussianBlur4054" />
    </filter>
  </defs>
  <sodipodi:namedview
     id="base"
     pagecolor="#ffffff"
     bordercolor="#666666"
     borderopacity="1.0"
     inkscape:pageopacity="0.0"
     inkscape:pageshadow="2"
     inkscape:zoom="11.921875"
     inkscape:cx="32"
     inkscape:cy="32"
     inkscape:document-units="px"
     inkscape:current-layer="layer1"
     showgrid="false"
     inkscape:window-width="1680"
     inkscape:window-height="966"
     inkscape:window-x="0"
     inkscape:window-y="32"
     inkscape:window-maximized="1"
     showguides="true"
     inkscape:guide-bbox="true"
     objecttolerance="20"
     gridtolerance="1"
     guidetolerance="1"
     fit-margin-top="0"
     fit-margin-left="0"
     fit-margin-right="0"
     fit-margin-bottom="0">
    <sodipodi:guide
       orientation="1,0"
       position="33.667104,52.665758"
       id="guide3820" />
    <sodipodi:guide
       orientation="0,1"
       position="61.536042,30.207042"
       id="guide3822" />
  </sodipodi:namedview>
  <metadata
     id="metadata7">
    <rdf:RDF>
      <cc:Work
         rdf:about="">
        <dc:format>image/svg+xml</dc:format>
        <dc:type
           rdf:resource="http://purl.org/dc/dcmitype/StillImage" />
        <dc:title></dc:title>
      </cc:Work>
    </rdf:RDF>
  </metadata>
  <g
     inkscape:label="Layer 1"
     inkscape:groupmode="layer"
     id="layer1"
     transform="translate(8,-996.36217)">
    <g
       transform="matrix(1.2666666,0,0,1.2666666,-4.3642665,-272.43169)"
       id="g3890"
       style="opacity:0.89000005;fill:#2e3436;stroke:none;filter:url(#filter4052)">
      <rect
         ry="1"
         rx="1"
         transform="translate(0,1004.3622)"
         y="0.2"
         x="0"
         height="40"
         width="45"
         id="rect3892"
         style="fill:#2e3436;fill-opacity:1;fill-rule:nonzero;stroke:none" />
      <path
         inkscape:connector-curvature="0"
         style="fill:#2e3436;fill-opacity:1;fill-rule:nonzero;stroke:none"
         d="m 1,0.1875 c -0.554,0 -1,0.446 -1,1 l 0,1 45,0 0,-1 c 0,-0.554 -0.446,-1 -1,-1 l -43,0 z"
         transform="translate(0,1004.3622)"
         id="path3894" />
      <rect
         style="fill:#2e3436;fill-opacity:1;fill-rule:nonzero;stroke:none"
         id="rect3896"
         width="43"
         height="36"
         x="1"
         y="1007.5622"
         rx="1"
         ry="1" />
      <g
         id="g3898"
         transform="translate(0.5,-0.20000518)"
         style="fill:#2e3436;stroke:none">
        <path
           transform="translate(0,1004.3622)"
           inkscape:connector-curvature="0"
           id="path3900"
           d="m 5.2,9.4 33.6,0"
           style="fill:#2e3436;stroke:none" />
        <path
           style="fill:#2e3436;stroke:none"
           d="m 5.2,1017.7622 33.6,0"
           id="path3902"
           inkscape:connector-curvature="0" />
        <path
           inkscape:connector-curvature="0"
           id="path3904"
           d="m 5.2,1021.7622 33.6,0"
           style="fill:#2e3436;stroke:none" />
        <path
           style="fill:#2e3436;stroke:none"
           d="m 5.2,1025.7622 33.6,0"
           id="path3906"
           inkscape:connector-curvature="0" />
        <path
           inkscape:connector-curvature="0"
           id="path3908"
           d="m 5.2,1029.7622 33.6,0"
           style="fill:#2e3436;stroke:none" />
        <path
           style="fill:#2e3436;stroke:none"
           d="m 5.2,1033.7622 33.6,0"
           id="path3910"
           inkscape:connector-curvature="0" />
        <path
           inkscape:connector-curvature="0"
           id="path3912"
           d="m 5.2,1037.7622 33.6,0"
           style="fill:#2e3436;stroke:none" />
      </g>
    </g>
    <g
       transform="matrix(1.1405862,0,0,1.1405862,-0.63695281,-141.83651)"
       id="g3914"
       style="opacity:0.89000005;fill:#2e3436;stroke:none;filter:url(#filter4052)">
      <path
         transform="matrix(1.6915347,0,0,1.6915347,-33.233554,966.86896)"
         d="m 37.200001,38.599998 c 0,0.552285 -0.447715,1 -1,1 -0.552285,0 -1,-0.447715 -1,-1 0,-0.552284 0.447715,-1 1,-1 0.552285,0 1,0.447716 1,1 z"
         sodipodi:ry="1"
         sodipodi:rx="1"
         sodipodi:cy="38.599998"
         sodipodi:cx="36.200001"
         id="path3916"
         style="fill:#2e3436;fill-opacity:1;fill-rule:nonzero;stroke:none"
         sodipodi:type="arc" />
      <path
         transform="matrix(1.6915347,0,0,1.6915347,-33.531974,966.77055)"
         d="m 48.200001,38.599998 c 0,6.627417 -5.372583,12 -12,12 -6.627417,0 -12,-5.372583 -12,-12 0,-6.627417 5.372583,-12 12,-12 6.627417,0 12,5.372583 12,12 z"
         sodipodi:ry="12"
         sodipodi:rx="12"
         sodipodi:cy="38.599998"
         sodipodi:cx="36.200001"
         id="path3918"
         style="fill:#2e3436;fill-opacity:1;fill-rule:nonzero;stroke:none"
         sodipodi:type="arc" />
      <path
         sodipodi:type="arc"
         style="fill:#2e3436;fill-opacity:1;fill-rule:nonzero;stroke:none"
         id="path3920"
         sodipodi:cx="36.200001"
         sodipodi:cy="38.599998"
         sodipodi:rx="11"
         sodipodi:ry="11"
         d="m 47.200001,38.599998 c 0,6.075133 -4.924868,11 -11,11 -6.075132,0 -11,-4.924867 -11,-11 0,-6.075132 4.924868,-11 11,-11 6.075132,0 11,4.924868 11,11 z"
         transform="matrix(1.6915347,0,0,1.6915347,-33.531974,966.77055)" />
      <path
         sodipodi:nodetypes="czc"
         inkscape:connector-curvature="0"
         id="path3922"
         d="m 27.67509,1030.2547 c 0,0 10.556306,0.807 10.550228,1.9207 -0.0061,1.1137 -10.550228,1.7036 -10.550228,1.7036"
         style="fill:#2e3436;stroke:none"
         inkscape:transform-center-y="-0.0011149202"
         inkscape:transform-center-x="-5.0025059" />
      <path
         style="fill:#2e3436;stroke:none"
         d="m 26.008743,1032.0784 c 0,0 0.552619,-16.9272 1.666347,-16.9272 1.113728,0 1.69864,16.9272 1.69864,16.9272"
         id="path3924"
         inkscape:connector-curvature="0"
         sodipodi:nodetypes="czc" />
      <path
         sodipodi:type="arc"
         style="fill:#2e3436;fill-opacity:1;fill-rule:nonzero;stroke:none"
         id="path3926"
         sodipodi:cx="36.200001"
         sodipodi:cy="38.599998"
         sodipodi:rx="1"
         sodipodi:ry="1"
         d="m 37.200001,38.599998 c 0,0.552285 -0.447715,1 -1,1 -0.552285,0 -1,-0.447715 -1,-1 0,-0.552284 0.447715,-1 1,-1 0.552285,0 1,0.447716 1,1 z"
         transform="matrix(1.6915347,0,0,1.6915347,-33.531974,966.77055)" />
      <path
         transform="matrix(1.6915347,0,0,1.6915347,-33.531974,966.77055)"
         style="fill:#2e3436;fill-opacity:0.33193276;fill-rule:nonzero;stroke:none"
         d="m 46.829898,38.599998 c 0,5.79899 -4.830907,10.673196 -10.629897,10.673196 -4.475558,0 -8.400271,-2.903311 -9.958546,-6.894342 2.751454,1.481484 7.869363,1.109924 11.720127,-2.404628 3.580567,-3.267947 4.732555,-3.047463 8.700599,-3.479037 0.13837,0.680022 0.167717,1.383933 0.167717,2.104811 z"
         id="path3928"
         inkscape:connector-curvature="0"
         sodipodi:nodetypes="sscscs" />
    </g>
    <rect
       ry="1.3333333"
       rx="1.3333333"
       y="996.37885"
       x="-8"
       height="53.333332"
       width="60"
       id="rect3815"
       style="fill:#d3d7cf;fill-opacity:1;fill-rule:nonzero;stroke:none" />
    <path
       inkscape:connector-curvature="0"
       style="fill:#729fcf;fill-opacity:1;fill-rule:nonzero;stroke:none"
       d="M -6.6666667,996.36217 C -7.4053333,996.36217 -8,996.95683 -8,997.6955 l 0,1.33333 59.999999,0 0,-1.33333 c 0,-0.73867 -0.594667,-1.33333 -1.333334,-1.33333 l -57.3333317,0 z"
       id="rect2987" />
    <rect
       style="fill:#eeeeec;fill-opacity:1;fill-rule:nonzero;stroke:none"
       id="rect3813"
       width="58.33308"
       height="48.837002"
       x="-7.1665416"
       y="999.96027"
       rx="1.3565832"
       ry="1.3565832" />
    <g
       id="g3832"
       transform="matrix(1.3333333,0,0,1.3333333,-7.3333333,-343.30407)"
       style="fill:#2e3436;stroke:#555753;stroke-opacity:1;stroke-width:1.50000003999999998">
      <path
         transform="translate(0,1004.3622)"
         inkscape:connector-curvature="0"
         id="path2993"
         d="m 5.2,9.4 33.6,0"
         style="fill:#2e3436;stroke:#555753;stroke-width:1.50000003999999998;stroke-linecap:round;stroke-linejoin:miter;stroke-opacity:1" />
      <path
         style="fill:#2e3436;stroke:#555753;stroke-width:1.50000003999999998;stroke-linecap:round;stroke-linejoin:miter;stroke-opacity:1"
         d="m 5.2,1017.7622 33.6,0"
         id="path2995"
         inkscape:connector-curvature="0" />
      <path
         inkscape:connector-curvature="0"
         id="path2997"
         d="m 5.2,1021.7622 33.6,0"
         style="fill:#2e3436;stroke:#555753;stroke-width:1.50000003999999998;stroke-linecap:round;stroke-linejoin:miter;stroke-opacity:1" />
      <path
         style="fill:#2e3436;stroke:#555753;stroke-width:1.50000003999999998;stroke-linecap:round;stroke-linejoin:miter;stroke-opacity:1"
         d="m 5.2,1025.7622 33.6,0"
         id="path2999"
         inkscape:connector-curvature="0" />
      <path
         inkscape:connector-curvature="0"
         id="path3001"
         d="m 5.2,1029.7622 33.6,0"
         style="fill:#2e3436;stroke:#555753;stroke-width:1.50000003999999998;stroke-linecap:round;stroke-linejoin:miter;stroke-opacity:1" />
      <path
         style="fill:#2e3436;stroke:#555753;stroke-width:1.50000003999999998;stroke-linecap:round;stroke-linejoin:miter;stroke-opacity:1"
         d="m 5.2,1033.7622 33.6,0"
         id="path3003"
         inkscape:connector-curvature="0" />
      <path
         inkscape:connector-curvature="0"
         id="path3005"
         d="m 5.2,1037.7622 33.6,0"
         style="fill:#2e3436;stroke:#555753;stroke-width:1.50000003999999998;stroke-linecap:round;stroke-linejoin:miter;stroke-opacity:1" />
    </g>
    <path
       inkscape:transform-center-y="-15.633023"
       style="fill:#888a85;stroke:#888a85;stroke-width:1.16804075px;stroke-linecap:round;stroke-linejoin:miter;stroke-opacity:1"
       d="m 29.583654,1014.0325 0,3.6006"
       id="path5254"
       inkscape:connector-curvature="0"
       inkscape:transform-center-x="2.3e-05" />
    <path
       transform="matrix(1.9757814,0,0,1.9757814,-41.55077,957.83591)"
       d="m 37.200001,38.599998 a 1,1 0 1 1 -2,0 1,1 0 1 1 2,0 z"
       sodipodi:ry="1"
       sodipodi:rx="1"
       sodipodi:cy="38.599998"
       sodipodi:cx="36.200001"
       id="path3028"
       style="fill:#babdb6;fill-opacity:1;fill-rule:nonzero;stroke:#888a85;stroke-width:0.59117913;stroke-linecap:butt;stroke-linejoin:round;stroke-miterlimit:4;stroke-opacity:1;stroke-dasharray:none;stroke-dashoffset:0"
       sodipodi:type="arc" />
    <path
       transform="matrix(1.9757814,0,0,1.9757814,-41.899336,957.72097)"
       d="m 48.200001,38.599998 a 12,12 0 1 1 -24,0 12,12 0 1 1 24,0 z"
       sodipodi:ry="12"
       sodipodi:rx="12"
       sodipodi:cy="38.599998"
       sodipodi:cx="36.200001"
       id="path3026"
       style="fill:#729fcf;fill-opacity:1;fill-rule:nonzero;stroke:none"
       sodipodi:type="arc" />
    <path
       sodipodi:type="arc"
       style="fill:#eeeeec;fill-opacity:1;fill-rule:nonzero;stroke:#d3d7cf;stroke-width:0.49033752;stroke-linecap:butt;stroke-linejoin:round;stroke-miterlimit:4;stroke-opacity:1;stroke-dasharray:none;stroke-dashoffset:0"
       id="path2985"
       sodipodi:cx="36.200001"
       sodipodi:cy="38.599998"
       sodipodi:rx="11"
       sodipodi:ry="11"
       d="m 47.200001,38.599998 a 11,11 0 1 1 -22,0 11,11 0 1 1 22,0 z"
       transform="matrix(2.0133917,0,0,2.0133917,-43.260829,956.26921)" />
    <path
       sodipodi:nodetypes="czc"
       inkscape:connector-curvature="0"
       id="path3830"
       d="m 29.593008,1031.873 c 0,0 12.330196,0.9426 12.323097,2.2435 -0.0071,1.3008 -12.323097,1.822 -12.323097,1.822"
       style="fill:#babdb6;stroke:#888a85;stroke-width:1;stroke-linecap:butt;stroke-linejoin:miter;stroke-opacity:1"
       inkscape:transform-center-y="-0.0011149202"
       inkscape:transform-center-x="-5.0025059" />
    <path
       style="fill:#babdb6;stroke:#888a85;stroke-width:1;stroke-linecap:butt;stroke-linejoin:miter;stroke-opacity:1"
       d="m 27.646648,1034.0032 c 0,0 0.645481,-19.7717 1.94636,-19.7717 1.30088,0 1.984081,19.7717 1.984081,19.7717"
       id="path3826"
       inkscape:connector-curvature="0"
       sodipodi:nodetypes="czc" />
    <path
       sodipodi:type="arc"
       style="fill:#babdb6;fill-opacity:1;fill-rule:nonzero;stroke:#888a85;stroke-width:0.50612887;stroke-linecap:butt;stroke-linejoin:round;stroke-miterlimit:4;stroke-opacity:1;stroke-dasharray:none;stroke-dashoffset:0"
       id="path3811"
       sodipodi:cx="36.200001"
       sodipodi:cy="38.599998"
       sodipodi:rx="1"
       sodipodi:ry="1"
       d="m 37.200001,38.599998 a 1,1 0 1 1 -2,0 1,1 0 1 1 2,0 z"
       transform="matrix(1.9757814,0,0,1.9757814,-41.899336,957.72097)" />
    <path
       style="fill:#888a85;stroke:#888a85;stroke-width:1.16804075px;stroke-linecap:round;stroke-linejoin:miter;stroke-opacity:1"
       d="m 9.5233837,1034.0928 3.6005653,0"
       id="path4734"
       inkscape:connector-curvature="0"
       inkscape:transform-center-x="15.633028" />
    <path
       inkscape:transform-center-x="-15.633028"
       inkscape:connector-curvature="0"
       id="path5252"
       d="m 49.643977,1034.0928 -3.600566,0"
       style="fill:#888a85;stroke:#888a85;stroke-width:1.16804075px;stroke-linecap:round;stroke-linejoin:miter;stroke-opacity:1"
       inkscape:transform-center-y="-2.3e-05" />
    <path
       inkscape:transform-center-x="2.3e-05"
       inkscape:connector-curvature="0"
       id="path5256"
       d="m 29.583654,1054.1531 0,-3.6007"
       style="fill:#888a85;stroke:#888a85;stroke-width:1.16804075px;stroke-linecap:round;stroke-linejoin:miter;stroke-opacity:1"
       inkscape:transform-center-y="15.632977" />
    <path
       inkscape:transform-center-x="14.040592"
       inkscape:connector-curvature="0"
       id="path5258"
       d="m 12.210954,1044.123 1.945485,-1.1233"
       style="fill:#888a85;stroke:#888a85;stroke-width:0.72875994px;stroke-linecap:round;stroke-linejoin:miter;stroke-opacity:1"
       inkscape:transform-center-y="8.10635" />
    <path
       inkscape:transform-center-y="14.0406"
       style="fill:#888a85;stroke:#888a85;stroke-width:0.72875994px;stroke-linecap:round;stroke-linejoin:miter;stroke-opacity:1"
       d="m 19.553556,1051.4655 1.123189,-1.9455"
       id="path5262"
       inkscape:connector-curvature="0"
       inkscape:transform-center-x="8.1063345" />
    <path
       inkscape:connector-curvature="0"
       id="path5264"
       d="M 39.613846,1051.4655 38.490628,1049.52"
       style="fill:#888a85;stroke:#888a85;stroke-width:0.72875994px;stroke-linecap:round;stroke-linejoin:miter;stroke-opacity:1"
       inkscape:transform-center-y="14.0406"
       inkscape:transform-center-x="-8.10635" />
    <path
       inkscape:transform-center-x="-14.040605"
       inkscape:transform-center-y="8.10635"
       style="fill:#888a85;stroke:#888a85;stroke-width:0.72875994px;stroke-linecap:round;stroke-linejoin:miter;stroke-opacity:1"
       d="m 46.956428,1044.123 -1.945479,-1.1233"
       id="path5266"
       inkscape:connector-curvature="0" />
    <path
       style="fill:#ffffff;fill-opacity:0.33193276;fill-rule:nonzero;stroke:none"
       d="m 51.319522,1034.423 c 0,11.5057 -9.803604,21.1765 -21.571786,21.1765 -9.082478,0 -17.047095,-5.7604 -20.2093825,-13.679 5.5836655,2.9395 15.9696965,2.2023 23.7842465,-4.771 7.266227,-6.4837 9.604014,-6.0464 17.656567,-6.9026 0.2808,1.3492 0.340355,2.7459 0.340355,4.1761 z"
       id="path3878"
       inkscape:connector-curvature="0"
       sodipodi:nodetypes="sscscs" />
    <path
       inkscape:connector-curvature="0"
       id="path5268"
       d="m 46.956446,1024.0626 -1.945514,1.1233"
       style="fill:#888a85;stroke:#888a85;stroke-width:0.72875994px;stroke-linecap:round;stroke-linejoin:miter;stroke-opacity:1"
       inkscape:transform-center-x="-14.040606"
       inkscape:transform-center-y="-8.10635" />
    <path
       inkscape:transform-center-y="-14.0406"
       inkscape:transform-center-x="-8.1063465"
       style="fill:#888a85;stroke:#888a85;stroke-width:0.72875994px;stroke-linecap:round;stroke-linejoin:miter;stroke-opacity:1"
       d="m 39.613839,1016.72 -1.123213,1.9455"
       id="path5270"
       inkscape:connector-curvature="0" />
    <path
       inkscape:connector-curvature="0"
       id="path5272"
       d="m 19.553545,1016.72 1.1232,1.9455"
       style="fill:#888a85;stroke:#888a85;stroke-width:0.72875994px;stroke-linecap:round;stroke-linejoin:miter;stroke-opacity:1"
       inkscape:transform-center-y="-14.0406"
       inkscape:transform-center-x="8.10635" />
    <path
       inkscape:transform-center-x="14.040605"
       inkscape:transform-center-y="-8.10635"
       style="fill:#888a85;stroke:#888a85;stroke-width:0.72875994px;stroke-linecap:round;stroke-linejoin:miter;stroke-opacity:1"
       d="m 12.210962,1024.0626 1.945463,1.1233"
       id="path5274"
       inkscape:connector-curvature="0" />
  </g>
</svg>
